<mxfile host="app.diagrams.net" modified="2021-05-28T19:04:57.659Z" agent="5.0 (X11)" etag="IN63LG764Kq981glYbXx" version="14.7.2" type="github">
  <diagram id="kCPz2ZWZHN0TpiMqB4xw" name="Page-1">
    <mxGraphModel dx="867" dy="699" grid="1" gridSize="10" guides="1" tooltips="1" connect="1" arrows="1" fold="1" page="1" pageScale="1" pageWidth="700" pageHeight="400" math="0" shadow="0">
      <root>
        <mxCell id="0" />
        <mxCell id="1" parent="0" />
        <mxCell id="D3cZAq9tkSZbist2RZ-O-14" value="" style="edgeStyle=orthogonalEdgeStyle;rounded=0;orthogonalLoop=1;jettySize=auto;html=1;" edge="1" parent="1" source="D3cZAq9tkSZbist2RZ-O-1" target="D3cZAq9tkSZbist2RZ-O-13">
          <mxGeometry relative="1" as="geometry" />
        </mxCell>
        <mxCell id="D3cZAq9tkSZbist2RZ-O-1" value="" style="rounded=0;whiteSpace=wrap;html=1;fillColor=#fff2cc;strokeColor=#d6b656;" vertex="1" parent="1">
          <mxGeometry x="250" y="110" width="420" height="110" as="geometry" />
        </mxCell>
        <mxCell id="D3cZAq9tkSZbist2RZ-O-2" value="comments" style="rounded=1;whiteSpace=wrap;html=1;fillColor=#dae8fc;strokeColor=#6c8ebf;" vertex="1" parent="1">
          <mxGeometry x="260" y="160" width="130" height="50" as="geometry" />
        </mxCell>
        <mxCell id="D3cZAq9tkSZbist2RZ-O-3" value="&lt;div&gt;[`Im a comment`, `Another comment`]&lt;br&gt;&lt;/div&gt;" style="rounded=1;whiteSpace=wrap;html=1;fillColor=#dae8fc;strokeColor=#6c8ebf;" vertex="1" parent="1">
          <mxGeometry x="405" y="160" width="255" height="50" as="geometry" />
        </mxCell>
        <mxCell id="D3cZAq9tkSZbist2RZ-O-4" value="State" style="rounded=0;whiteSpace=wrap;html=1;fillColor=#d5e8d4;strokeColor=#82b366;" vertex="1" parent="1">
          <mxGeometry x="250" y="120" width="420" height="20" as="geometry" />
        </mxCell>
        <mxCell id="D3cZAq9tkSZbist2RZ-O-18" value="" style="edgeStyle=orthogonalEdgeStyle;rounded=0;orthogonalLoop=1;jettySize=auto;html=1;" edge="1" parent="1" source="D3cZAq9tkSZbist2RZ-O-5" target="D3cZAq9tkSZbist2RZ-O-17">
          <mxGeometry relative="1" as="geometry" />
        </mxCell>
        <mxCell id="D3cZAq9tkSZbist2RZ-O-5" value="" style="rounded=0;whiteSpace=wrap;html=1;fillColor=#f5f5f5;strokeColor=#666666;fontColor=#333333;" vertex="1" parent="1">
          <mxGeometry x="250" y="280" width="420" height="110" as="geometry" />
        </mxCell>
        <mxCell id="D3cZAq9tkSZbist2RZ-O-6" value="saveComment" style="rounded=1;whiteSpace=wrap;html=1;fillColor=#ffe6cc;strokeColor=#d79b00;" vertex="1" parent="1">
          <mxGeometry x="260" y="330" width="130" height="50" as="geometry" />
        </mxCell>
        <mxCell id="D3cZAq9tkSZbist2RZ-O-7" value="Adds a comment via the `comments` reducer" style="rounded=1;whiteSpace=wrap;html=1;fillColor=#ffe6cc;strokeColor=#d79b00;" vertex="1" parent="1">
          <mxGeometry x="405" y="330" width="255" height="50" as="geometry" />
        </mxCell>
        <mxCell id="D3cZAq9tkSZbist2RZ-O-8" value="Actions" style="rounded=0;whiteSpace=wrap;html=1;fillColor=#60a917;strokeColor=#2D7600;fontColor=#ffffff;" vertex="1" parent="1">
          <mxGeometry x="250" y="290" width="420" height="20" as="geometry" />
        </mxCell>
        <mxCell id="D3cZAq9tkSZbist2RZ-O-13" value="&lt;font style=&quot;font-size: 10px&quot;&gt;Data needed by commentList&lt;/font&gt;" style="ellipse;whiteSpace=wrap;html=1;rounded=0;strokeColor=#82b366;fillColor=#d5e8d4;" vertex="1" parent="1">
          <mxGeometry x="60" y="80" width="120" height="90" as="geometry" />
        </mxCell>
        <mxCell id="D3cZAq9tkSZbist2RZ-O-17" value="&lt;font style=&quot;font-size: 10px&quot; color=&quot;#FFFFFF&quot;&gt;Action needed by commentBox&lt;/font&gt;" style="ellipse;whiteSpace=wrap;html=1;rounded=0;strokeColor=#2D7600;fillColor=#60a917;fontColor=#ffffff;" vertex="1" parent="1">
          <mxGeometry x="60" y="250" width="120" height="90" as="geometry" />
        </mxCell>
        <mxCell id="D3cZAq9tkSZbist2RZ-O-19" value="&lt;font style=&quot;font-size: 23px&quot;&gt;&lt;b&gt;&lt;font style=&quot;font-size: 23px&quot;&gt;Redux Design&lt;/font&gt;&lt;/b&gt;&lt;/font&gt;" style="text;html=1;align=center;verticalAlign=middle;resizable=0;points=[];autosize=1;strokeColor=none;strokeWidth=5;" vertex="1" parent="1">
          <mxGeometry x="265" y="20" width="170" height="20" as="geometry" />
        </mxCell>
      </root>
    </mxGraphModel>
  </diagram>
</mxfile>
